# xmcd
#
# Track frame offsets: 
#        150
#        13691
#        32164
#        46676
#        61799
#        82560
#        91435
#        109432
#        125790
#        142536
#        153084
#        170657
#        187739
#        198581
#
# Disc length: 2868 seconds
#
# Revision: 0
# Processed by: cddbd v1.5.2PL0 Copyright (c) Steve Scherf et al.
# Submitted via: ExactAudioCopyFreeDBPlugin 1.0
#
DISCID=a70b320e
DTITLE=Kev Spencer - ... For Reasons Unknown
DYEAR=2018
DGENRE=Blues
TTITLE0=Wicked Ways
TTITLE1=Bluesman
TTITLE2=They Call It The Blues
TTITLE3=Funky Kinda Stride
TTITLE4=Mr Witchdoctor
TTITLE5=Sunday Stomp!
TTITLE6=Now And Again
TTITLE7=Let's Get Down
TTITLE8=Sounds Like Love
TTITLE9=Six Feet Below
TTITLE10=Even When You're Wrong
TTITLE11=Queen O' Hearts
TTITLE12=Still Takin' Money
TTITLE13=One Ain't Enough
EXTD=
EXTT0=
EXTT1=
EXTT2=
EXTT3=
EXTT4=
EXTT5=
EXTT6=
EXTT7=
EXTT8=
EXTT9=
EXTT10=
EXTT11=
EXTT12=
EXTT13=
PLAYORDER=
